<svg preserveAspectRatio="none" width="100%" height="100%" overflow="visible" style="display: block;" viewBox="0 0 14.123 14.1436" fill="none" xmlns="http://www.w3.org/2000/svg">
<path id="&#244;&#131;&#136;&#176;" d="M8.1416 0C8.26465 0 8.36719 0.0410156 8.44922 0.123047C8.53581 0.200521 8.58822 0.30306 8.60645 0.430664C8.71582 1.2373 8.83659 1.91634 8.96875 2.46777C9.10091 3.01921 9.27409 3.47493 9.48828 3.83496C9.70703 4.19043 9.99186 4.47526 10.3428 4.68945C10.6937 4.90365 11.138 5.07227 11.6758 5.19531C12.2181 5.3138 12.8835 5.41634 13.6719 5.50293C13.804 5.5166 13.9111 5.56901 13.9932 5.66016C14.0798 5.74674 14.123 5.85384 14.123 5.98145C14.123 6.10449 14.082 6.21159 14 6.30273C13.918 6.38932 13.8109 6.43945 13.6787 6.45312C12.8903 6.54883 12.2249 6.6582 11.6826 6.78125C11.1449 6.9043 10.7005 7.07292 10.3496 7.28711C10.0033 7.5013 9.72298 7.78613 9.50879 8.1416C9.2946 8.49707 9.11914 8.95052 8.98242 9.50195C8.85026 10.0488 8.72493 10.7233 8.60645 11.5254C8.58822 11.6576 8.53581 11.7624 8.44922 11.8398C8.36263 11.9219 8.26009 11.9629 8.1416 11.9629C8.01855 11.9629 7.91374 11.9219 7.82715 11.8398C7.74512 11.7624 7.69499 11.6576 7.67676 11.5254C7.56738 10.7233 7.44661 10.0465 7.31445 9.49512C7.18685 8.94368 7.01367 8.49023 6.79492 8.13477C6.58073 7.77474 6.2959 7.48763 5.94043 7.27344C5.58952 7.05924 5.1429 6.8929 4.60059 6.77441C4.06283 6.65137 3.39974 6.54427 2.61133 6.45312C2.47917 6.44401 2.36979 6.39616 2.2832 6.30957C2.20117 6.21842 2.16016 6.10905 2.16016 5.98145C2.16016 5.85384 2.20117 5.74674 2.2832 5.66016C2.36979 5.57357 2.47689 5.52116 2.60449 5.50293C3.3929 5.39811 4.05599 5.2819 4.59375 5.1543C5.13151 5.02669 5.57357 4.85807 5.91992 4.64844C6.27083 4.4388 6.55339 4.15853 6.76758 3.80762C6.98177 3.45671 7.15723 3.00781 7.29395 2.46094C7.43066 1.90951 7.55827 1.23275 7.67676 0.430664C7.69499 0.30306 7.7474 0.200521 7.83398 0.123047C7.92057 0.0410156 8.02311 0 8.1416 0ZM2.92578 8.29199C3.01237 8.29199 3.08301 8.31706 3.1377 8.36719C3.19238 8.41276 3.22428 8.47656 3.2334 8.55859C3.2972 9.04622 3.361 9.42904 3.4248 9.70703C3.49316 9.98503 3.59798 10.1947 3.73926 10.3359C3.88509 10.4727 4.10384 10.582 4.39551 10.6641C4.68717 10.7415 5.09049 10.8258 5.60547 10.917C5.67839 10.9307 5.73991 10.9648 5.79004 11.0195C5.84017 11.0742 5.86523 11.1403 5.86523 11.2178C5.86523 11.2998 5.84017 11.3659 5.79004 11.416C5.73991 11.4707 5.67611 11.5003 5.59863 11.5049C5.08822 11.5824 4.68717 11.6553 4.39551 11.7236C4.10384 11.792 3.88509 11.8968 3.73926 12.0381C3.59798 12.1839 3.49316 12.3981 3.4248 12.6807C3.361 12.9678 3.2972 13.362 3.2334 13.8633C3.21061 14.0501 3.10807 14.1436 2.92578 14.1436C2.7526 14.1436 2.6569 14.0479 2.63867 13.8564C2.57943 13.3688 2.51562 12.986 2.44727 12.708C2.38346 12.4346 2.27637 12.2272 2.12598 12.0859C1.98014 11.9492 1.75911 11.8421 1.46289 11.7646C1.17122 11.6917 0.770182 11.6051 0.259766 11.5049C0.0865885 11.4775 0 11.3818 0 11.2178C0 11.0446 0.10026 10.9443 0.300781 10.917C0.802083 10.8395 1.19629 10.7643 1.4834 10.6914C1.77051 10.6185 1.98698 10.5114 2.13281 10.3701C2.27865 10.2243 2.38346 10.0124 2.44727 9.73438C2.51562 9.45182 2.57943 9.06445 2.63867 8.57227C2.64779 8.48568 2.67741 8.41732 2.72754 8.36719C2.78223 8.31706 2.84831 8.29199 2.92578 8.29199Z" fill="var(--fill-0, #8359FF)"/>
</svg>
